<svg width="32" height="11" viewBox="0 0 32 11" fill="none" xmlns="http://www.w3.org/2000/svg">
<path d="M2.28 10.15C1.72 10.15 1.25 9.97 0.87 9.61C0.49 9.24 0.3 8.77 0.3 8.2C0.3 7.62 0.49 7.155 0.87 6.805C1.25 6.455 1.72 6.28 2.28 6.28C2.84 6.28 3.31 6.455 3.69 6.805C4.07 7.155 4.26 7.62 4.26 8.2C4.26 8.77 4.07 9.24 3.69 9.61C3.31 9.97 2.84 10.15 2.28 10.15ZM8.68366 10.12C7.93166 10.12 7.26366 9.976 6.67966 9.688C6.09566 9.4 5.63566 9 5.29966 8.488C4.97166 7.968 4.80766 7.376 4.80766 6.712C4.80766 6.048 4.97166 5.46 5.29966 4.948C5.63566 4.436 6.09566 4.036 6.67966 3.748C7.26366 3.46 7.93166 3.316 8.68366 3.316C9.48366 3.316 10.1677 3.488 10.7357 3.832C11.3037 4.176 11.6957 4.652 11.9117 5.26L9.81166 6.292C9.67566 5.988 9.50766 5.768 9.30766 5.632C9.11566 5.496 8.90366 5.428 8.67166 5.428C8.47166 5.428 8.28366 5.476 8.10766 5.572C7.93966 5.668 7.80366 5.812 7.69966 6.004C7.60366 6.188 7.55566 6.424 7.55566 6.712C7.55566 7 7.60366 7.24 7.69966 7.432C7.80366 7.624 7.93966 7.768 8.10766 7.864C8.28366 7.96 8.47166 8.008 8.67166 8.008C8.90366 8.008 9.11566 7.94 9.30766 7.804C9.50766 7.668 9.67566 7.448 9.81166 7.144L11.9117 8.176C11.6957 8.784 11.3037 9.26 10.7357 9.604C10.1677 9.948 9.48366 10.12 8.68366 10.12ZM16.5105 10V8.836L16.3185 8.524V6.316C16.3185 5.996 16.2185 5.752 16.0185 5.584C15.8265 5.416 15.5105 5.332 15.0705 5.332C14.7745 5.332 14.4745 5.38 14.1705 5.476C13.8665 5.564 13.6065 5.688 13.3905 5.848L12.5265 4.06C12.9105 3.82 13.3705 3.636 13.9065 3.508C14.4425 3.38 14.9665 3.316 15.4785 3.316C16.6065 3.316 17.4785 3.568 18.0945 4.072C18.7185 4.576 19.0305 5.376 19.0305 6.472V10H16.5105ZM14.6505 10.12C14.1145 10.12 13.6665 10.028 13.3065 9.844C12.9465 9.66 12.6745 9.416 12.4905 9.112C12.3065 8.8 12.2145 8.456 12.2145 8.08C12.2145 7.656 12.3225 7.296 12.5385 7C12.7545 6.704 13.0825 6.48 13.5225 6.328C13.9705 6.176 14.5345 6.1 15.2145 6.1H16.5825V7.408H15.6465C15.3585 7.408 15.1465 7.456 15.0105 7.552C14.8825 7.64 14.8185 7.776 14.8185 7.96C14.8185 8.112 14.8745 8.24 14.9865 8.344C15.1065 8.44 15.2665 8.488 15.4665 8.488C15.6505 8.488 15.8185 8.44 15.9705 8.344C16.1305 8.24 16.2465 8.08 16.3185 7.864L16.6665 8.668C16.5625 9.156 16.3425 9.52 16.0065 9.76C15.6705 10 15.2185 10.12 14.6505 10.12ZM20.2025 10V3.436H22.9145V10H20.2025ZM21.5585 2.908C21.0625 2.908 20.6665 2.776 20.3705 2.512C20.0745 2.248 19.9265 1.92 19.9265 1.528C19.9265 1.136 20.0745 0.807999 20.3705 0.543999C20.6665 0.279999 21.0625 0.148 21.5585 0.148C22.0545 0.148 22.4505 0.272 22.7465 0.52C23.0425 0.767999 23.1905 1.088 23.1905 1.48C23.1905 1.896 23.0425 2.24 22.7465 2.512C22.4505 2.776 22.0545 2.908 21.5585 2.908ZM27.5846 10.12C26.8406 10.12 26.1806 9.976 25.6046 9.688C25.0366 9.392 24.5886 8.988 24.2606 8.476C23.9326 7.964 23.7686 7.376 23.7686 6.712C23.7686 6.048 23.9326 5.46 24.2606 4.948C24.5886 4.436 25.0366 4.036 25.6046 3.748C26.1806 3.46 26.8406 3.316 27.5846 3.316C28.3286 3.316 28.9886 3.46 29.5646 3.748C30.1406 4.036 30.5886 4.436 30.9086 4.948C31.2366 5.46 31.4006 6.048 31.4006 6.712C31.4006 7.376 31.2366 7.964 30.9086 8.476C30.5886 8.988 30.1406 9.392 29.5646 9.688C28.9886 9.976 28.3286 10.12 27.5846 10.12ZM27.5846 8.008C27.7846 8.008 27.9646 7.96 28.1246 7.864C28.2846 7.768 28.4126 7.624 28.5086 7.432C28.6046 7.232 28.6526 6.992 28.6526 6.712C28.6526 6.424 28.6046 6.188 28.5086 6.004C28.4126 5.812 28.2846 5.668 28.1246 5.572C27.9646 5.476 27.7846 5.428 27.5846 5.428C27.3846 5.428 27.2046 5.476 27.0446 5.572C26.8846 5.668 26.7566 5.812 26.6606 6.004C26.5646 6.188 26.5166 6.424 26.5166 6.712C26.5166 6.992 26.5646 7.232 26.6606 7.432C26.7566 7.624 26.8846 7.768 27.0446 7.864C27.2046 7.96 27.3846 8.008 27.5846 8.008Z" fill="black"/>
</svg>
